<?xml version="1.0" standalone="no"?><!-- Generator: Gravit.io --><svg xmlns="http://www.w3.org/2000/svg" xmlns:xlink="http://www.w3.org/1999/xlink" style="isolation:isolate" viewBox="0 0 100 100" width="100" height="100"><defs><clipPath id="_clipPath_yi9acZ9NjMEK4zHgm6wwkNIybVmfgRtb"><rect width="100" height="100"/></clipPath></defs><g clip-path="url(#_clipPath_yi9acZ9NjMEK4zHgm6wwkNIybVmfgRtb)"><g style="isolation:isolate" id="content layer"><g transform="matrix(1,0,0,1,0,27)"><text transform="matrix(1,0,0,1,5.424,24.417)" style="font-family:&quot;Alice&quot;;font-weight:400;font-size:8px;font-style:normal;fill:#ffffff;stroke:none;">Belethor's General Mods</text></g><g id="Dragonbar bottom"><path d="M 89 54.5 L 53 54.5 L 53 54 L 52.5 54 L 52.5 53.5 L 53 53.5 L 53 53 L 89 53 L 89 53.5 L 89.5 53.5 L 89.5 54 L 89 54 L 89 54.5 Z" style="stroke:none;fill:#FFFFFF;stroke-miterlimit:10;"/><path d=" M 95.964 55.254 C 95.311 55.621 95.578 56.122 96.333 56.065 L 96.385 55.769 L 96.527 56.04 C 96.568 56.032 96.611 56.023 96.654 56.012 L 96.7 55.751 L 96.861 55.952 C 96.906 55.936 96.953 55.919 97 55.901 C 96.969 56.198 96.969 56.413 96.7 56.501 Q 96.299 56.317 96.1 56.351 Q 95.901 56.384 95.805 56.758 Q 95.587 56.995 95.2 57.001 C 95.158 57.001 95.115 57.001 95.069 57.001 C 94.865 57.252 94.408 57.271 93.811 57.001 C 94.136 57.008 94.388 56.981 94.487 56.871 C 94.407 56.834 94.34 56.776 94.289 56.699 C 93.999 56.79 93.538 56.847 93.061 56.531 C 93.549 56.649 93.952 56.473 94.093 56.198 C 94.076 56.157 94.055 56.112 94.031 56.065 C 93.748 56.171 93.233 56.284 92.7 55.931 C 93.214 56.055 93.634 55.852 93.758 55.555 C 93.711 55.482 93.661 55.41 93.608 55.339 C 93.403 55.553 92.91 55.672 92.2 55.501 C 92.664 55.48 93.104 55.216 93.214 54.882 C 93.059 54.726 92.886 54.595 92.7 54.501 L 88.7 54.501 L 88.7 53.001 L 92.7 53.001 C 94.771 52.976 95.439 53.694 95.05 55.401 Q 95.323 55.037 96.45 54.901 C 96.55 54.901 96.628 54.929 96.7 55.001 C 96.603 55.021 96.514 55.043 96.431 55.067 L 96.461 55.406 L 96.214 55.139 C 96.19 55.148 96.166 55.158 96.143 55.167 L 96.192 55.468 L 95.964 55.254 Z  M 90.599 55.501 C 91.08 55.089 91.075 54.751 90.599 54.501 L 91.599 54.501 C 91.725 54.783 91.381 55.106 90.599 55.501 Z  M 91.7 55.501 C 92.181 55.089 92.176 54.751 91.7 54.501 L 92.7 54.501 C 92.798 54.824 92.455 55.148 91.7 55.501 Z " fill="rgb(255,255,255)"/><path d="M 51 54.5 L 50.5 54.5 L 50.5 54 L 50 54 L 50 53.5 L 50.5 53.5 L 50.5 53 L 51 53 L 51 53.5 L 51.5 53.5 L 51.5 54 L 51 54 L 51 54.5 Z" style="stroke:none;fill:#FFFFFF;stroke-miterlimit:10;"/></g><g id="Dragonbar bottom"><path d="M 11 54.5 L 47 54.5 L 47 54 L 47.5 54 L 47.5 53.5 L 47 53.5 L 47 53 L 11 53 L 11 53.5 L 10.5 53.5 L 10.5 54 L 11 54 L 11 54.5 Z" style="stroke:none;fill:#FFFFFF;stroke-miterlimit:10;"/><path d=" M 4.036 55.254 C 4.689 55.621 4.422 56.122 3.667 56.065 L 3.615 55.769 L 3.473 56.04 C 3.432 56.032 3.389 56.023 3.346 56.012 L 3.3 55.751 L 3.139 55.952 C 3.094 55.936 3.047 55.919 3 55.901 C 3.031 56.198 3.031 56.413 3.3 56.501 Q 3.701 56.317 3.9 56.351 Q 4.099 56.384 4.195 56.758 Q 4.413 56.995 4.8 57.001 C 4.842 57.001 4.885 57.001 4.931 57.001 C 5.135 57.252 5.592 57.271 6.189 57.001 C 5.864 57.008 5.612 56.981 5.513 56.871 C 5.593 56.834 5.66 56.776 5.711 56.699 C 6.001 56.79 6.462 56.847 6.939 56.531 C 6.451 56.649 6.048 56.473 5.907 56.198 C 5.924 56.157 5.945 56.112 5.969 56.065 C 6.252 56.171 6.767 56.284 7.3 55.931 C 6.786 56.055 6.366 55.852 6.242 55.555 C 6.289 55.482 6.339 55.41 6.392 55.339 C 6.597 55.553 7.09 55.672 7.8 55.501 C 7.336 55.48 6.896 55.216 6.786 54.882 C 6.941 54.726 7.114 54.595 7.3 54.501 L 11.3 54.501 L 11.3 53.001 L 7.3 53.001 C 5.229 52.976 4.561 53.694 4.95 55.401 Q 4.677 55.037 3.55 54.901 C 3.45 54.901 3.372 54.929 3.3 55.001 C 3.397 55.021 3.486 55.043 3.569 55.067 L 3.539 55.406 L 3.786 55.139 C 3.81 55.148 3.834 55.158 3.857 55.167 L 3.808 55.468 L 4.036 55.254 Z  M 9.401 55.501 C 8.92 55.089 8.925 54.751 9.401 54.501 L 8.401 54.501 C 8.275 54.783 8.619 55.106 9.401 55.501 Z  M 8.3 55.501 C 7.819 55.089 7.824 54.751 8.3 54.501 L 7.3 54.501 C 7.202 54.824 7.545 55.148 8.3 55.501 Z " fill="rgb(255,255,255)"/><path d="M 49 54.5 L 49.5 54.5 L 49.5 54 L 50 54 L 50 53.5 L 49.5 53.5 L 49.5 53 L 49 53 L 49 53.5 L 48.5 53.5 L 48.5 54 L 49 54 L 49 54.5 Z" style="stroke:none;fill:#FFFFFF;stroke-miterlimit:10;"/></g><g id="Dragonbar top"><path d="M 11 42.696 L 47 42.696 L 47 43.196 L 47.5 43.196 L 47.5 43.696 L 47 43.696 L 47 44.196 L 11 44.196 L 11 43.696 L 10.5 43.696 L 10.5 43.196 L 11 43.196 L 11 42.696 Z" style="stroke:none;fill:#FFFFFF;stroke-miterlimit:10;"/><path d=" M 4.036 41.942 C 4.689 41.575 4.422 41.074 3.667 41.131 L 3.615 41.427 L 3.473 41.157 C 3.432 41.164 3.389 41.173 3.346 41.184 L 3.3 41.446 L 3.139 41.245 C 3.094 41.26 3.047 41.277 3 41.296 C 3.031 40.998 3.031 40.783 3.3 40.696 Q 3.701 40.879 3.9 40.846 Q 4.099 40.812 4.195 40.438 Q 4.413 40.201 4.8 40.196 C 4.842 40.195 4.885 40.195 4.931 40.196 C 5.135 39.944 5.592 39.925 6.189 40.196 C 5.864 40.189 5.612 40.215 5.513 40.326 C 5.593 40.363 5.66 40.42 5.711 40.497 C 6.001 40.406 6.462 40.349 6.939 40.665 C 6.451 40.547 6.048 40.724 5.907 40.998 C 5.924 41.04 5.945 41.084 5.969 41.131 C 6.252 41.025 6.767 40.912 7.3 41.266 C 6.786 41.141 6.366 41.344 6.242 41.641 C 6.289 41.714 6.339 41.786 6.392 41.857 C 6.597 41.644 7.09 41.524 7.8 41.696 C 7.336 41.717 6.896 41.981 6.786 42.314 C 6.941 42.47 7.114 42.602 7.3 42.696 L 11.3 42.696 L 11.3 44.196 L 7.3 44.196 C 5.229 44.22 4.561 43.502 4.95 41.796 Q 4.677 42.159 3.55 42.296 C 3.45 42.296 3.372 42.268 3.3 42.196 C 3.397 42.176 3.486 42.154 3.569 42.13 L 3.539 41.79 L 3.786 42.058 C 3.81 42.048 3.834 42.039 3.857 42.029 L 3.808 41.728 L 4.036 41.942 Z  M 9.401 41.696 C 8.92 42.107 8.925 42.445 9.401 42.696 L 8.401 42.696 C 8.275 42.414 8.619 42.09 9.401 41.696 Z  M 8.3 41.696 C 7.819 42.107 7.824 42.445 8.3 42.696 L 7.3 42.696 C 7.202 42.372 7.545 42.049 8.3 41.696 Z " fill="rgb(255,255,255)"/><path d="M 49 42.696 L 49.5 42.696 L 49.5 43.196 L 50 43.196 L 50 43.696 L 49.5 43.696 L 49.5 44.196 L 49 44.196 L 49 43.696 L 48.5 43.696 L 48.5 43.196 L 49 43.196 L 49 42.696 Z" style="stroke:none;fill:#FFFFFF;stroke-miterlimit:10;"/></g><g id="Dragonbar top"><path d="M 89 42.696 L 53 42.696 L 53 43.196 L 52.5 43.196 L 52.5 43.696 L 53 43.696 L 53 44.196 L 89 44.196 L 89 43.696 L 89.5 43.696 L 89.5 43.196 L 89 43.196 L 89 42.696 Z" style="stroke:none;fill:#FFFFFF;stroke-miterlimit:10;"/><path d=" M 95.964 41.942 C 95.311 41.575 95.578 41.074 96.333 41.131 L 96.385 41.427 L 96.527 41.157 C 96.568 41.164 96.611 41.173 96.654 41.184 L 96.7 41.446 L 96.861 41.245 C 96.906 41.26 96.953 41.277 97 41.296 C 96.969 40.998 96.969 40.783 96.7 40.696 Q 96.299 40.879 96.1 40.846 Q 95.901 40.812 95.805 40.438 Q 95.587 40.201 95.2 40.196 C 95.158 40.195 95.115 40.195 95.069 40.196 C 94.865 39.944 94.408 39.925 93.811 40.196 C 94.136 40.189 94.388 40.215 94.487 40.326 C 94.407 40.363 94.34 40.42 94.289 40.497 C 93.999 40.406 93.538 40.349 93.061 40.665 C 93.549 40.547 93.952 40.724 94.093 40.998 C 94.076 41.04 94.055 41.084 94.031 41.131 C 93.748 41.025 93.233 40.912 92.7 41.266 C 93.214 41.141 93.634 41.344 93.758 41.641 C 93.711 41.714 93.661 41.786 93.608 41.857 C 93.403 41.644 92.91 41.524 92.2 41.696 C 92.664 41.717 93.104 41.981 93.214 42.314 C 93.059 42.47 92.886 42.602 92.7 42.696 L 88.7 42.696 L 88.7 44.196 L 92.7 44.196 C 94.771 44.22 95.439 43.502 95.05 41.796 Q 95.323 42.159 96.45 42.296 C 96.55 42.296 96.628 42.268 96.7 42.196 C 96.603 42.176 96.514 42.154 96.431 42.13 L 96.461 41.79 L 96.214 42.058 C 96.19 42.048 96.166 42.039 96.143 42.029 L 96.192 41.728 L 95.964 41.942 Z  M 90.599 41.696 C 91.08 42.107 91.075 42.445 90.599 42.696 L 91.599 42.696 C 91.725 42.414 91.381 42.09 90.599 41.696 Z  M 91.7 41.696 C 92.181 42.107 92.176 42.445 91.7 42.696 L 92.7 42.696 C 92.798 42.372 92.455 42.049 91.7 41.696 Z " fill="rgb(255,255,255)"/><path d="M 51 42.696 L 50.5 42.696 L 50.5 43.196 L 50 43.196 L 50 43.696 L 50.5 43.696 L 50.5 44.196 L 51 44.196 L 51 43.696 L 51.5 43.696 L 51.5 43.196 L 51 43.196 L 51 42.696 Z" style="stroke:none;fill:#FFFFFF;stroke-miterlimit:10;"/></g></g></g></svg>