<?xml version="1.0" standalone="no"?><!-- Generator: Gravit.io --><svg xmlns="http://www.w3.org/2000/svg" xmlns:xlink="http://www.w3.org/1999/xlink" style="isolation:isolate" viewBox="0 0 100 100" width="100" height="100"><defs><clipPath id="_clipPath_o0c3XCMjhFsNwhBfPQhIFQezhsbWoPbD"><rect width="100" height="100"/></clipPath></defs><g clip-path="url(#_clipPath_o0c3XCMjhFsNwhBfPQhIFQezhsbWoPbD)"><g style="isolation:isolate" id="content layer"><g transform="matrix(1,0,0,1,0,27)"><text transform="matrix(1,0,0,1,7.162,34.542)" style="font-family:&quot;Alice&quot;;font-weight:400;font-size:38px;font-style:normal;fill:#ffffff;stroke:none;">BGM</text></g><g id="Dragonbar bottom"><path d="M 81 71 L 9 71 L 9 70 L 8 70 L 8 69 L 9 69 L 9 68 L 81 68 L 81 69 L 82 69 L 82 70 L 81 70 L 81 71 Z" style="stroke:none;fill:#FFFFFF;stroke-miterlimit:10;"/><path d=" M 94.929 72.508 C 93.621 73.243 94.156 74.245 95.667 74.13 L 95.77 73.538 L 96.054 74.079 C 96.136 74.064 96.222 74.046 96.309 74.025 L 96.4 73.501 L 96.722 73.904 C 96.813 73.873 96.905 73.839 97 73.801 C 96.938 74.396 96.939 74.827 96.4 75.001 Q 95.598 74.634 95.2 74.701 Q 94.802 74.768 94.61 75.517 Q 94.174 75.991 93.4 76.001 C 93.316 76.002 93.23 76.003 93.138 76.001 C 92.729 76.504 91.815 76.542 90.622 76.001 C 91.272 76.016 91.776 75.962 91.975 75.742 C 91.813 75.667 91.68 75.552 91.578 75.398 C 90.998 75.581 90.075 75.694 89.122 75.062 C 90.097 75.299 90.904 74.945 91.186 74.397 C 91.152 74.314 91.11 74.224 91.062 74.131 C 90.496 74.342 89.467 74.568 88.4 73.861 C 89.427 74.11 90.267 73.705 90.515 73.11 C 90.422 72.964 90.323 72.82 90.217 72.678 C 89.807 73.105 88.82 73.345 87.4 73.001 C 88.327 72.96 89.208 72.432 89.429 71.765 C 89.119 71.452 88.772 71.19 88.4 71.001 L 80.4 71.001 L 80.4 68.001 L 88.4 68.001 C 92.541 67.952 93.878 69.389 93.1 72.801 Q 93.646 72.074 95.9 71.801 C 96.099 71.801 96.256 71.858 96.4 72.001 C 96.207 72.041 96.027 72.086 95.861 72.134 L 95.922 72.812 L 95.429 72.277 C 95.38 72.296 95.333 72.315 95.287 72.335 L 95.384 72.937 L 94.929 72.508 Z  M 84.198 73.001 C 85.161 72.179 85.151 71.502 84.198 71.001 L 86.198 71.001 C 86.45 71.565 85.763 72.212 84.198 73.001 Z  M 86.4 73.001 C 87.363 72.179 87.353 71.502 86.4 71.001 L 88.4 71.001 C 88.596 71.649 87.909 72.295 86.4 73.001 Z " fill="rgb(255,255,255)"/><path d="M 5 71 L 4 71 L 4 70 L 3 70 L 3 69 L 4 69 L 4 68 L 5 68 L 5 69 L 6 69 L 6 70 L 5 70 L 5 71 Z" style="stroke:none;fill:#FFFFFF;stroke-miterlimit:10;"/></g><g id="Dragonbar top"><path d="M 19 29 L 91 29 L 91 30 L 92 30 L 92 31 L 91 31 L 91 32 L 19 32 L 19 31 L 18 31 L 18 30 L 19 30 L 19 29 Z" style="stroke:none;fill:#FFFFFF;stroke-miterlimit:10;"/><path d=" M 5.071 27.492 C 6.379 26.757 5.844 25.755 4.333 25.87 L 4.23 26.462 L 3.946 25.921 C 3.864 25.936 3.778 25.954 3.691 25.975 L 3.6 26.499 L 3.278 26.096 C 3.187 26.127 3.095 26.161 3 26.199 C 3.062 25.604 3.061 25.173 3.6 24.999 Q 4.402 25.366 4.8 25.299 Q 5.198 25.232 5.39 24.483 Q 5.826 24.009 6.6 23.999 C 6.684 23.998 6.77 23.997 6.862 23.999 C 7.271 23.496 8.185 23.458 9.378 23.999 C 8.728 23.984 8.224 24.038 8.025 24.258 C 8.187 24.333 8.32 24.448 8.422 24.602 C 9.002 24.419 9.925 24.306 10.878 24.938 C 9.903 24.701 9.096 25.055 8.814 25.603 C 8.848 25.686 8.89 25.776 8.938 25.869 C 9.504 25.658 10.533 25.432 11.6 26.139 C 10.573 25.89 9.733 26.295 9.485 26.89 C 9.578 27.036 9.677 27.18 9.783 27.322 C 10.193 26.895 11.18 26.655 12.6 26.999 C 11.673 27.04 10.792 27.568 10.571 28.235 C 10.881 28.548 11.228 28.81 11.6 28.999 L 19.6 28.999 L 19.6 31.999 L 11.6 31.999 C 7.459 32.048 6.122 30.611 6.9 27.199 Q 6.354 27.926 4.1 28.199 C 3.901 28.199 3.744 28.142 3.6 27.999 C 3.793 27.959 3.973 27.914 4.139 27.866 L 4.078 27.188 L 4.571 27.723 C 4.62 27.704 4.667 27.685 4.713 27.665 L 4.616 27.063 L 5.071 27.492 Z  M 15.802 26.999 C 14.839 27.821 14.849 28.498 15.802 28.999 L 13.802 28.999 C 13.55 28.435 14.237 27.788 15.802 26.999 Z  M 13.6 26.999 C 12.637 27.821 12.647 28.498 13.6 28.999 L 11.6 28.999 C 11.404 28.351 12.091 27.705 13.6 26.999 Z " fill="rgb(255,255,255)"/><path d="M 95 29 L 96 29 L 96 30 L 97 30 L 97 31 L 96 31 L 96 32 L 95 32 L 95 31 L 94 31 L 94 30 L 95 30 L 95 29 Z" style="stroke:none;fill:#FFFFFF;stroke-miterlimit:10;"/></g></g></g></svg>