<?xml version="1.0" standalone="no"?><!-- Generator: Gravit.io --><svg xmlns="http://www.w3.org/2000/svg" xmlns:xlink="http://www.w3.org/1999/xlink" style="isolation:isolate" viewBox="0 0 100 100" width="100" height="100"><defs><clipPath id="_clipPath_Uh2Cy1VLnHnXpRrtpUJ6pMkHlYVDi3mj"><rect width="100" height="100"/></clipPath></defs><g clip-path="url(#_clipPath_Uh2Cy1VLnHnXpRrtpUJ6pMkHlYVDi3mj)"><g id="Group"><path d=" M 26 34 C 26 27.929 30.929 23 37 23 C 43.071 23 48 27.929 48 34 C 48 40.071 43.071 45 37 45 C 30.929 45 26 40.071 26 34 Z " fill="rgb(152,0,0)"/><path d=" M 40 45 C 40 40.861 43.361 37.5 47.5 37.5 C 51.639 37.5 55 40.861 55 45 C 55 49.139 51.639 52.5 47.5 52.5 C 43.361 52.5 40 49.139 40 45 Z " fill="rgb(152,0,0)"/><path d=" M 46 59 C 46 57.344 47.344 56 49 56 C 50.656 56 52 57.344 52 59 C 52 60.656 50.656 62 49 62 C 47.344 62 46 60.656 46 59 Z " fill="rgb(152,0,0)"/><path d=" M 63 63.5 C 63 62.672 63.672 62 64.5 62 C 65.328 62 66 62.672 66 63.5 C 66 64.328 65.328 65 64.5 65 C 63.672 65 63 64.328 63 63.5 Z " fill="rgb(152,0,0)"/><path d=" M 66 75.5 C 66 74.12 67.12 73 68.5 73 C 69.88 73 71 74.12 71 75.5 C 71 76.88 69.88 78 68.5 78 C 67.12 78 66 76.88 66 75.5 Z " fill="rgb(152,0,0)"/><path d=" M 77 60.5 C 77 59.396 77.896 58.5 79 58.5 C 80.104 58.5 81 59.396 81 60.5 C 81 61.604 80.104 62.5 79 62.5 C 77.896 62.5 77 61.604 77 60.5 Z " fill="rgb(152,0,0)"/><path d=" M 63 48.5 C 63 47.672 63.672 47 64.5 47 C 65.328 47 66 47.672 66 48.5 C 66 49.328 65.328 50 64.5 50 C 63.672 50 63 49.328 63 48.5 Z " fill="rgb(152,0,0)"/><path d=" M 59 38.25 C 59 36.732 60.232 35.5 61.75 35.5 C 63.268 35.5 64.5 36.732 64.5 38.25 C 64.5 39.768 63.268 41 61.75 41 C 60.232 41 59 39.768 59 38.25 Z " fill="rgb(152,0,0)"/><path d=" M 79 79 C 79 77.896 79.896 77 81 77 C 82.104 77 83 77.896 83 79 C 83 80.104 82.104 81 81 81 C 79.896 81 79 80.104 79 79 Z " fill="rgb(152,0,0)"/><path d=" M 47.5 67.5 C 47.5 66.672 48.172 66 49 66 C 49.828 66 50.5 66.672 50.5 67.5 C 50.5 68.328 49.828 69 49 69 C 48.172 69 47.5 68.328 47.5 67.5 Z " fill="rgb(152,0,0)"/><path d=" M 17 47.25 C 17 45.732 18.232 44.5 19.75 44.5 C 21.268 44.5 22.5 45.732 22.5 47.25 C 22.5 48.768 21.268 50 19.75 50 C 18.232 50 17 48.768 17 47.25 Z " fill="rgb(152,0,0)"/><path d=" M 19 22.5 C 19 21.672 19.672 21 20.5 21 C 21.328 21 22 21.672 22 22.5 C 22 23.328 21.328 24 20.5 24 C 19.672 24 19 23.328 19 22.5 Z " fill="rgb(152,0,0)"/><path d=" M 13 23.5 C 13 22.12 14.12 21 15.5 21 C 16.88 21 18 22.12 18 23.5 C 18 24.88 16.88 26 15.5 26 C 14.12 26 13 24.88 13 23.5 Z " fill="rgb(152,0,0)"/><path d="M 32.5 37.5 L 32.5 37.5 C 33.328 37.5 34 38.368 34 39.436 L 34 81.564 C 34 82.632 33.328 83.5 32.5 83.5 L 32.5 83.5 C 31.672 83.5 31 82.632 31 81.564 L 31 39.436 C 31 38.368 31.672 37.5 32.5 37.5 Z" style="stroke:none;fill:#980000;stroke-miterlimit:10;"/><path d="M 36.5 35 L 36.5 35 C 37.052 35 37.5 35.543 37.5 36.211 L 37.5 60.789 C 37.5 61.457 37.052 62 36.5 62 L 36.5 62 C 35.948 62 35.5 61.457 35.5 60.789 L 35.5 36.211 C 35.5 35.543 35.948 35 36.5 35 Z" style="stroke:none;fill:#980000;stroke-miterlimit:10;"/></g></g></svg>