<?xml version="1.0" standalone="no"?><!-- Generator: Gravit.io --><svg xmlns="http://www.w3.org/2000/svg" xmlns:xlink="http://www.w3.org/1999/xlink" style="isolation:isolate" viewBox="0 0 100 100" width="100" height="100"><defs><clipPath id="_clipPath_ZcKxW7qqOVCbDYSb7kBv0FBAorN7eep8"><rect width="100" height="100"/></clipPath></defs><g clip-path="url(#_clipPath_ZcKxW7qqOVCbDYSb7kBv0FBAorN7eep8)"><g id="Group"><g id="Coin"><path d=" M 13 50 C 13 29.579 29.579 13 50 13 C 70.421 13 87 29.579 87 50 C 87 70.421 70.421 87 50 87 C 29.579 87 13 70.421 13 50 Z " fill="rgb(172,130,3)"/><path d=" M 11 48 C 11 27.579 27.579 11 48 11 C 68.421 11 85 27.579 85 48 C 85 68.421 68.421 85 48 85 C 27.579 85 11 68.421 11 48 Z " fill="rgb(236,190,54)"/><mask id="_mask_Cosvy2JM4nVpy9V6pAV3UcxEMujVyN9G"><path d=" M 12 48 C 12 28.131 28.131 12 48 12 C 67.869 12 84 28.131 84 48 C 84 67.869 67.869 84 48 84 C 28.131 84 12 67.869 12 48 Z " fill="white" stroke="none"/></mask><path d=" M 12 48 C 12 28.131 28.131 12 48 12 C 67.869 12 84 28.131 84 48 C 84 67.869 67.869 84 48 84 C 28.131 84 12 67.869 12 48 Z " fill="none" mask="url(#_mask_Cosvy2JM4nVpy9V6pAV3UcxEMujVyN9G)" vector-effect="non-scaling-stroke" stroke-width="14" stroke="rgb(149,118,27)" stroke-linejoin="miter" stroke-linecap="square" stroke-miterlimit="3"/><path d=" M 16 48 C 16 30.339 30.339 16 48 16 C 65.661 16 80 30.339 80 48 C 80 65.661 65.661 80 48 80 C 30.339 80 16 65.661 16 48 Z " fill="rgb(204,159,25)"/><g id="Group"><polygon points="48,57,56.703,80,39.297,80" fill="rgb(215,172,46)"/><polygon points="43.648,55.73,39.686,80,24.611,71.297" fill="rgb(215,172,46)"/><polygon points="40.515,52.454,24.948,71.491,16.244,56.416" fill="rgb(215,172,46)"/><polygon points="39.439,48.05,16.439,56.753,16.439,39.346" fill="rgb(215,172,46)"/><polygon points="40.709,43.698,16.439,39.736,25.142,24.661" fill="rgb(215,172,46)"/><polygon points="43.985,40.565,24.948,24.998,40.023,16.294" fill="rgb(215,172,46)"/><polygon points="48.389,39.489,39.686,16.489,57.093,16.489" fill="rgb(215,172,46)"/><polygon points="52.741,40.759,56.703,16.489,71.778,25.192" fill="rgb(215,172,46)"/><polygon points="55.874,44.035,71.441,24.998,80.145,40.073" fill="rgb(215,172,46)"/><polygon points="56.95,48.439,79.95,39.736,79.95,57.142" fill="rgb(215,172,46)"/><polygon points="55.68,52.791,79.95,56.753,71.247,71.828" fill="rgb(215,172,46)"/><polygon points="52.404,55.924,71.441,71.491,56.366,80.195" fill="rgb(215,172,46)"/></g><mask id="_mask_piTJ48BYoaH8GkJa24CRcacYg4H5xo54"><path d=" M 15 48 C 15 29.787 29.787 15 48 15 C 66.213 15 81 29.787 81 48 C 81 66.213 66.213 81 48 81 C 29.787 81 15 66.213 15 48 Z " fill="white" stroke="none"/></mask><path d=" M 15 48 C 15 29.787 29.787 15 48 15 C 66.213 15 81 29.787 81 48 C 81 66.213 66.213 81 48 81 C 29.787 81 15 66.213 15 48 Z " fill="none" mask="url(#_mask_piTJ48BYoaH8GkJa24CRcacYg4H5xo54)" vector-effect="non-scaling-stroke" stroke-width="4" stroke="rgb(236,190,54)" stroke-linejoin="miter" stroke-linecap="square" stroke-miterlimit="3"/></g><g id="Dragon"><path d=" M 45 19 L 46 20 L 44.761 24.426 L 44.761 31.459 L 42.791 31.459 L 39 45 L 31 45 L 45 19 Z " fill="rgb(236,190,54)"/><path d=" M 54 20 L 53 21 L 54.239 25.426 L 54.239 32.459 L 56.209 32.459 L 60 46 L 68 46 L 54 20 Z " fill="rgb(236,190,54)"/><path d=" M 45 73 L 45 64 L 42.707 62.299 L 39 45 L 31 45 L 45 73 Z " fill="rgb(236,190,54)"/><path d=" M 54 74 L 54 65 L 56.293 63.299 L 60 46 L 68 46 L 54 74 Z " fill="rgb(236,190,54)"/><path d=" M 44 56 L 45 59 L 47 56 L 49 64 L 46.097 68 L 47 72 L 46 76 L 47 80 L 49 81 L 47 76 L 49 72 L 48 69 L 51.175 64 L 50 59 L 52 56 L 53 59 L 54 56 L 59 55 L 61 43 L 56.822 46 L 55.823 44 L 53 46 L 51.175 44 L 49 40 L 54 35 L 53 31.459 L 50 30 L 52 27 L 48.214 29 L 48 24 L 46.097 29 L 44.761 33 L 46 36 L 48 33 L 51.175 32 L 51.175 35 L 46.097 39 L 48.214 45 L 46.097 45 L 42.791 43 L 42.707 45 L 39 45 L 40 54 L 44 56 Z " fill="rgb(236,190,54)"/></g></g></g></svg>