<?xml version="1.0" standalone="no"?><!-- Generator: Gravit.io --><svg xmlns="http://www.w3.org/2000/svg" xmlns:xlink="http://www.w3.org/1999/xlink" style="isolation:isolate" viewBox="0 0 100 100" width="100" height="100"><defs><clipPath id="_clipPath_xuuNkjtHpgOuTcSAtjbs9GVH53rSk3eq"><rect width="100" height="100"/></clipPath></defs><g clip-path="url(#_clipPath_xuuNkjtHpgOuTcSAtjbs9GVH53rSk3eq)"><g style="isolation:isolate" id="Layer 0"><g id="Group"><rect x="48" y="68" width="4" height="19" transform="matrix(1,0,0,1,0,0)" fill="rgb(136,82,0)"/><clipPath id="_clipPath_BVryMMEzTQwIpu83Q8UKIBvzRCjE8mN2"><rect x="48" y="68" width="4" height="19" transform="matrix(1,0,0,1,0,0)" fill="rgb(136,82,0)"/></clipPath><g clip-path="url(#_clipPath_BVryMMEzTQwIpu83Q8UKIBvzRCjE8mN2)"><path d=" M 50.707 81.919 L 53.712 78.914 L 53.005 78.207 L 50 81.212 L 46.995 78.207 L 46.288 78.914 L 49.293 81.919 L 46.288 84.925 L 46.995 85.632 L 50 82.627 L 53.005 85.632 L 53.712 84.925 L 50.707 81.919 Z " fill="rgb(155,112,48)"/><path d=" M 50.707 74.495 L 53.712 71.49 L 53.005 70.782 L 50 73.788 L 46.995 70.782 L 46.288 71.49 L 49.293 74.495 L 46.288 77.5 L 46.995 78.207 L 50 75.202 L 53.005 78.207 L 53.712 77.5 L 50.707 74.495 Z " fill="rgb(155,112,48)"/></g><path d=" M 48 87 L 52 87 L 53 91 L 50 92 L 47 91 L 48 87 Z " fill="rgb(88,89,88)"/><g id="Group"><path d=" M 50 63 L 50 8 C 53.265 26.46 54.609 44.137 54 61 C 52.525 61.901 52.545 62.921 54 64 L 52 68 L 48 68 L 50 63 Z " fill="rgb(188,187,188)"/><path d=" M 50 63 L 50 8 C 46.735 26.46 45.391 44.137 46 61 C 47.475 61.901 47.455 62.921 46 64 L 48 68 L 52 68 L 50 63 Z " fill="rgb(188,187,188)"/><path d=" M 50 63 L 50 25 C 50.141 36.837 50.535 49.23 51 62 C 51.913 64.452 54.933 64.472 58 62 L 59 64 C 57.1 66.085 54.777 67.428 52 68 L 48 68 L 50 63 Z " fill="rgb(88,89,88)"/><path d=" M 50 63 L 50 25 C 49.859 36.837 49.465 49.23 49 62 C 48.087 64.452 45.067 64.472 42 62 L 41 64 C 42.9 66.085 45.223 67.428 48 68 L 52 68 L 50 63 Z " fill="rgb(88,89,88)"/></g></g></g></g></svg>