<?xml version="1.0" standalone="no"?><!-- Generator: Gravit.io --><svg xmlns="http://www.w3.org/2000/svg" xmlns:xlink="http://www.w3.org/1999/xlink" style="isolation:isolate" viewBox="0 0 100 100" width="100" height="100"><defs><clipPath id="_clipPath_olhMD9sOd14WlkbOzzQU8Iz9YfnxCZMt"><rect width="100" height="100"/></clipPath></defs><g clip-path="url(#_clipPath_olhMD9sOd14WlkbOzzQU8Iz9YfnxCZMt)"><g id="Group"><rect x="28.398" y="21.453" width="38.204" height="57.093" transform="matrix(1,0,0,1,0,0)" fill="rgb(204,163,101)"/><rect x="30.898" y="12.227" width="38.204" height="18.453" transform="matrix(1,0,0,1,0,0)" fill="rgb(221,184,116)"/><rect x="30.898" y="69.32" width="38.204" height="18.453" transform="matrix(1,0,0,1,0,0)" fill="rgb(221,184,116)"/><path d=" M 28.398 21.453 C 28.398 16.361 29.518 12.227 30.898 12.227 C 32.278 12.227 33.398 16.361 33.398 21.453 C 33.398 26.546 32.278 30.68 30.898 30.68 C 29.518 30.68 28.398 26.546 28.398 21.453 Z " fill="rgb(247,224,182)"/><path d=" M 28.398 78.547 C 28.398 73.454 29.518 69.32 30.898 69.32 C 32.278 69.32 33.398 73.454 33.398 78.547 C 33.398 83.639 32.278 87.773 30.898 87.773 C 29.518 87.773 28.398 83.639 28.398 78.547 Z " fill="rgb(247,224,182)"/><path d=" M 66.602 21.453 C 66.602 16.361 67.722 12.227 69.102 12.227 C 70.482 12.227 71.602 16.361 71.602 21.453 C 71.602 26.546 70.482 30.68 69.102 30.68 C 67.722 30.68 66.602 26.546 66.602 21.453 Z " fill="rgb(221,184,116)"/><path d=" M 66.602 78.547 C 66.602 73.454 67.722 69.32 69.102 69.32 C 70.482 69.32 71.602 73.454 71.602 78.547 C 71.602 83.639 70.482 87.773 69.102 87.773 C 67.722 87.773 66.602 83.639 66.602 78.547 Z " fill="rgb(221,184,116)"/></g></g></svg>