<?xml version="1.0" standalone="no"?><!-- Generator: Gravit.io --><svg xmlns="http://www.w3.org/2000/svg" xmlns:xlink="http://www.w3.org/1999/xlink" style="isolation:isolate" viewBox="41.7 45.804 16.6 8.393" width="16.6" height="8.393"><path d=" M 43.771 49.688 C 45.079 48.954 44.544 47.952 43.033 48.066 L 42.93 48.658 L 42.646 48.117 C 42.564 48.132 42.478 48.15 42.391 48.172 L 42.3 48.695 L 41.978 48.293 C 41.887 48.324 41.795 48.358 41.7 48.395 C 41.762 47.8 41.761 47.37 42.3 47.195 Q 43.102 47.562 43.5 47.495 Q 43.898 47.428 44.09 46.68 Q 44.526 46.206 45.3 46.195 C 45.384 46.194 45.47 46.194 45.562 46.195 C 45.971 45.692 46.885 45.654 48.078 46.195 C 47.428 46.181 46.924 46.235 46.725 46.455 C 46.887 46.529 47.02 46.645 47.122 46.798 C 47.702 46.615 48.625 46.503 49.578 47.134 C 48.603 46.898 47.796 47.251 47.514 47.8 C 47.548 47.883 47.59 47.972 47.638 48.066 C 48.204 47.854 49.233 47.628 50.3 48.335 C 49.273 48.086 48.433 48.492 48.185 49.086 C 48.278 49.232 48.377 49.376 48.483 49.518 C 48.893 49.091 49.88 48.852 51.3 49.195 C 50.373 49.237 49.492 49.765 49.271 50.432 C 49.581 50.744 49.928 51.007 50.3 51.195 L 58.3 51.195 L 58.3 54.195 L 50.3 54.195 C 46.159 54.244 44.822 52.807 45.6 49.395 Q 45.054 50.123 42.8 50.395 C 42.601 50.395 42.444 50.339 42.3 50.195 C 42.493 50.155 42.673 50.111 42.839 50.063 L 42.778 49.384 L 43.271 49.919 C 43.32 49.9 43.367 49.881 43.413 49.862 L 43.316 49.26 L 43.771 49.688 Z  M 54.502 49.195 C 53.539 50.018 53.549 50.694 54.502 51.195 L 52.502 51.195 C 52.25 50.631 52.937 49.984 54.502 49.195 Z  M 52.3 49.195 C 51.337 50.018 51.347 50.694 52.3 51.195 L 50.3 51.195 C 50.104 50.548 50.791 49.901 52.3 49.195 Z " fill="rgb(255,255,255)"/></svg>